<svg width="527.9" height="75.901" viewBox="0 0 527.9 75.901" xmlns="http://www.w3.org/2000/svg"><g id="svgGroup" stroke-linecap="round" fill-rule="evenodd" font-size="9pt" stroke="#fed136" stroke-width="0.25mm" fill="#fed136" style="stroke:#fed136;stroke-width:0.25mm;fill:#fed136"><path d="M 303.8 42.5 L 311.5 32.7 Q 314.4 28.9 319.3 23.7 A 356.143 356.143 0 0 1 323.932 18.882 Q 326.332 16.43 329.051 13.729 A 632.218 632.218 0 0 1 330.9 11.9 Q 333.8 9.1 337.5 7.1 Q 341.2 5.1 343.8 5.1 Q 347.4 5.1 347.4 8.9 Q 347.4 12.2 344.7 17.9 A 308.981 308.981 0 0 1 341.747 23.952 Q 340.411 26.62 338.899 29.532 A 564.833 564.833 0 0 1 335.7 35.6 Q 334 38.7 333.4 40.9 A 70.968 70.968 0 0 1 333.189 41.658 Q 332.763 43.157 332.6 43.4 A 29.663 29.663 0 0 1 332.791 43.165 Q 333.272 42.576 334.457 41.161 A 783.851 783.851 0 0 1 334.55 41.05 Q 335.737 39.634 337.656 37.426 A 597.491 597.491 0 0 1 338.9 36 Q 342.3 32.2 347 27.65 Q 351.7 23.1 357.8 17.9 L 373.8 4.7 A 10.134 10.134 0 0 1 374.837 3.927 Q 376.122 3.1 377.2 3.1 A 1.912 1.912 0 0 1 378.805 3.925 Q 379.028 4.224 379.202 4.632 A 4.645 4.645 0 0 1 379.25 4.75 Q 379.692 5.872 380.157 7.432 A 61.484 61.484 0 0 1 380.6 9 Q 381.094 10.68 375.925 15.973 A 72.804 72.804 0 0 1 375.8 16.1 Q 363.3 28.9 354.2 44.7 A 137.645 137.645 0 0 0 350.765 51.099 Q 345.9 60.824 345.9 65.8 A 6.628 6.628 0 0 0 345.967 66.786 Q 346.158 68.049 346.895 68.479 A 1.766 1.766 0 0 0 347.8 68.7 A 3.091 3.091 0 0 0 348.436 68.614 Q 349.975 68.274 353.8 66.6 A 126.547 126.547 0 0 1 355.499 65.846 Q 357.753 64.866 358.848 64.525 A 6.397 6.397 0 0 1 359.3 64.4 A 1.594 1.594 0 0 1 359.495 64.493 Q 359.704 64.611 359.77 64.759 A 0.343 0.343 0 0 1 359.8 64.9 Q 359.8 66.126 356.259 68.154 A 41.069 41.069 0 0 1 354.5 69.1 Q 349.589 71.65 346.195 71.792 A 9.453 9.453 0 0 1 345.8 71.8 Q 344.16 71.8 343.516 71.053 A 1.557 1.557 0 0 1 343.4 70.9 A 10.011 10.011 0 0 1 341.767 66.753 A 13.373 13.373 0 0 1 341.6 64.6 A 23.354 23.354 0 0 1 342.328 59.17 Q 343.673 53.603 347.503 46.011 A 134.123 134.123 0 0 1 350.8 39.9 Q 355.317 32.167 363.586 20.331 A 680.978 680.978 0 0 1 369 12.7 Q 363.8 17 357.7 22.6 Q 351.6 28.2 344.6 35 Q 338.344 41.119 333.671 46.222 A 165.244 165.244 0 0 0 329.75 50.65 Q 325.011 56.214 322.48 60.181 A 37.007 37.007 0 0 0 321.5 61.8 A 13.763 13.763 0 0 1 320.086 63.911 Q 319.217 64.963 318.248 65.588 A 5.524 5.524 0 0 1 315.2 66.5 A 3.567 3.567 0 0 1 314.601 66.454 Q 313.531 66.271 313.501 65.354 A 1.638 1.638 0 0 1 313.5 65.3 A 1.159 1.159 0 0 1 313.606 64.825 Q 313.678 64.663 313.8 64.5 Q 315.321 62.085 317.642 58.269 A 964.418 964.418 0 0 0 318.2 57.35 A 1264.064 1264.064 0 0 0 320.366 53.767 Q 322.288 50.575 324.6 46.7 A 543.6 543.6 0 0 0 329.619 37.782 Q 334.945 28.092 338.259 20.941 A 135.709 135.709 0 0 0 340.1 16.8 A 45.427 45.427 0 0 0 340.839 14.858 Q 341.795 12.144 341.8 10.716 A 4.263 4.263 0 0 0 341.8 10.7 A 3.445 3.445 0 0 0 341.758 10.136 Q 341.591 9.136 340.76 9.101 A 1.452 1.452 0 0 0 340.7 9.1 Q 339.308 9.1 336.451 11.427 A 33.485 33.485 0 0 0 336 11.8 A 139.596 139.596 0 0 0 327.39 19.708 Q 323.109 23.956 318.49 29.118 A 311.603 311.603 0 0 0 311.1 37.7 Q 305.3 44.6 300.95 50.45 Q 296.6 56.3 293.6 61 Q 291.425 64.353 291.221 65.982 A 2.569 2.569 0 0 0 291.2 66.3 A 1.243 1.243 0 0 0 291.242 66.633 A 0.821 0.821 0 0 0 291.65 67.15 L 292.1 67.4 Q 292.1 67.488 290.73 68.564 A 108.584 108.584 0 0 1 290.3 68.9 A 7.614 7.614 0 0 1 287.616 69.656 A 9.35 9.35 0 0 1 286.7 69.7 A 13.52 13.52 0 0 1 285.576 69.658 Q 282.853 69.429 283.154 67.978 A 1.811 1.811 0 0 1 283.2 67.8 Q 284.416 63.892 290.533 54.48 A 262.106 262.106 0 0 1 292.5 51.5 A 978.356 978.356 0 0 0 296.662 45.271 Q 302.28 36.785 304.913 32.321 A 73.317 73.317 0 0 0 305.9 30.6 Q 311.495 20.496 312.418 13.809 A 18.38 18.38 0 0 0 312.6 11.3 A 15.094 15.094 0 0 0 312.4 8.75 Q 311.879 5.718 310 4.2 Q 308.133 2.692 304.875 2.267 A 21.502 21.502 0 0 0 302.1 2.1 A 30.723 30.723 0 0 0 290.247 4.606 Q 286.072 6.341 281.802 9.28 A 63.453 63.453 0 0 0 277.9 12.2 Q 272.5 16.6 267.8 22.15 A 56.67 56.67 0 0 0 261.815 30.636 A 50.084 50.084 0 0 0 260.2 33.7 A 30.077 30.077 0 0 0 257.948 39.973 A 24.34 24.34 0 0 0 257.3 45.5 A 15.95 15.95 0 0 0 257.765 49.537 Q 259.116 54.685 264.391 55.668 A 14.805 14.805 0 0 0 267.1 55.9 A 25.415 25.415 0 0 0 274.919 54.757 A 19.988 19.988 0 0 0 284.9 47.6 A 15.849 15.849 0 0 0 286.217 45.478 Q 286.826 44.28 287.093 43.14 A 7.626 7.626 0 0 0 287.3 41.4 A 4.481 4.481 0 0 0 287.232 40.586 Q 287.15 40.146 286.972 39.814 A 1.809 1.809 0 0 0 286.3 39.1 Q 286.217 39.017 286.203 38.866 A 0.703 0.703 0 0 1 286.2 38.8 A 0.366 0.366 0 0 1 286.258 38.59 Q 286.387 38.4 286.8 38.4 Q 289.082 38.4 289.361 41.02 A 7.384 7.384 0 0 1 289.4 41.8 A 6.485 6.485 0 0 1 289.197 43.335 Q 288.852 44.745 287.921 46.512 A 24.394 24.394 0 0 1 287.6 47.1 Q 285.3 51.1 280.7 53.9 Q 274.9 57.5 267.9 57.5 A 17.407 17.407 0 0 1 263 56.844 A 13.303 13.303 0 0 1 257 53.2 A 14.574 14.574 0 0 1 253.198 45.478 A 20.605 20.605 0 0 1 252.9 41.9 A 28.015 28.015 0 0 1 256.432 28.696 Q 261.113 19.867 271.996 10.827 A 109.09 109.09 0 0 1 273.5 9.6 A 33.919 33.919 0 0 1 278.524 6.337 A 43.265 43.265 0 0 1 282.55 4.45 Q 287.8 2.3 293.4 1.15 Q 299 0 303.7 0 Q 310.5 0 314.05 2.25 A 7.177 7.177 0 0 1 317.101 6.371 Q 317.491 7.644 317.576 9.204 A 16.417 16.417 0 0 1 317.6 10.1 A 23.83 23.83 0 0 1 317.057 14.887 Q 316.067 19.681 313.269 26.028 A 103.985 103.985 0 0 1 311.9 29 A 43.515 43.515 0 0 1 310.809 31.07 Q 308.624 34.997 303.8 42.5 Z M 48 51 L 56.7 35.3 Q 60.1 29.9 63.8 22.25 A 278.052 278.052 0 0 0 67.357 14.584 Q 69.164 10.538 71.057 6.005 A 457.752 457.752 0 0 0 71.6 4.7 A 129.386 129.386 0 0 0 69.803 4.688 A 121.285 121.285 0 0 0 43.6 7.5 A 90.466 90.466 0 0 0 35.461 9.612 Q 27.548 12.094 22.783 15.583 A 25.189 25.189 0 0 0 22.1 16.1 A 11.153 11.153 0 0 0 20.718 17.283 Q 19.1 18.938 19.1 20.7 A 3.434 3.434 0 0 0 20.186 23.208 Q 20.634 23.654 21.266 24.041 A 7.776 7.776 0 0 0 21.45 24.15 Q 23.497 25.326 26.493 25.478 A 17.957 17.957 0 0 0 27.4 25.5 Q 29.5 25.5 32.4 24.9 Q 35.3 24.3 38 23.25 A 19.482 19.482 0 0 0 39.685 22.508 Q 40.477 22.11 41.109 21.681 A 8.305 8.305 0 0 0 42.1 20.9 Q 42.925 20.24 43.342 20.125 A 0.6 0.6 0 0 1 43.5 20.1 Q 44.3 20.1 43.8 20.9 A 15.945 15.945 0 0 1 40.414 23.899 A 20.075 20.075 0 0 1 38.35 25.1 Q 35 26.8 31.3 27.65 A 34.928 34.928 0 0 1 27.51 28.313 A 26.997 26.997 0 0 1 24.4 28.5 A 20.035 20.035 0 0 1 21.548 28.31 Q 20.009 28.088 18.755 27.608 A 9.026 9.026 0 0 1 16.75 26.55 A 7.137 7.137 0 0 1 15.101 24.963 A 5.7 5.7 0 0 1 14 21.5 A 7.769 7.769 0 0 1 15.016 17.732 Q 15.913 16.094 17.6 14.5 A 24.381 24.381 0 0 1 23.054 10.621 Q 30.006 6.875 41.9 4.7 A 131.824 131.824 0 0 1 50.791 3.454 A 158.821 158.821 0 0 1 56.5 2.95 Q 64.3 2.4 73.1 2.5 A 10.334 10.334 0 0 1 74.451 1.501 Q 75.21 1.036 75.944 0.812 A 4.611 4.611 0 0 1 77.3 0.6 A 2.751 2.751 0 0 1 77.914 0.662 Q 79.214 0.961 78.8 2.7 Q 85.1 3.1 91.55 4.3 Q 98 5.5 103.35 7.65 A 33.086 33.086 0 0 1 107.639 9.723 Q 109.831 10.996 111.526 12.512 A 19.829 19.829 0 0 1 112 12.95 A 10.944 10.944 0 0 1 114.341 16.099 A 9.753 9.753 0 0 1 115.3 20.4 A 13.995 13.995 0 0 1 113.325 27.512 A 18.005 18.005 0 0 1 112.25 29.15 A 29.881 29.881 0 0 1 106.719 34.841 A 35.713 35.713 0 0 1 104.45 36.5 Q 99.7 39.7 94.5 41.6 A 65.044 65.044 0 0 1 86.437 43.865 A 74.1 74.1 0 0 1 84.25 44.3 Q 78.8 45.3 73.5 45.3 Q 69.5 45.3 65.85 44.7 A 30.226 30.226 0 0 1 61.542 43.677 A 25.169 25.169 0 0 1 59.2 42.8 Q 53.744 50.762 49.927 56.082 A 382.121 382.121 0 0 1 49.05 57.3 Q 45.997 61.522 43.995 63.812 A 26.595 26.595 0 0 1 42.8 65.1 A 36.24 36.24 0 0 1 28.909 73.978 A 36.317 36.317 0 0 1 17 75.9 A 27.098 27.098 0 0 1 12.016 75.469 Q 7.619 74.646 4.6 72.25 A 11.841 11.841 0 0 1 0.236 64.66 A 17.748 17.748 0 0 1 0 61.7 Q 0 56.7 2.15 52.25 Q 4.3 47.8 8 44.3 Q 11.7 40.8 16.45 38.8 Q 21.2 36.8 26.4 36.8 A 18.906 18.906 0 0 1 29.743 37.077 Q 31.591 37.41 33.065 38.141 A 9.633 9.633 0 0 1 34.75 39.2 A 7.695 7.695 0 0 1 37.764 44.824 A 10.32 10.32 0 0 1 37.8 45.7 Q 37.8 48.133 35.235 51.75 A 33.725 33.725 0 0 1 33.9 53.5 A 60.841 60.841 0 0 1 33.04 54.537 Q 30 58.113 30 56.7 A 1.159 1.159 0 0 1 30.106 56.225 Q 30.178 56.063 30.3 55.9 A 22.782 22.782 0 0 0 32.122 52.74 Q 32.962 50.943 33.29 49.242 A 11.293 11.293 0 0 0 33.5 47.1 A 9.419 9.419 0 0 0 33.156 44.487 A 7.115 7.115 0 0 0 31.15 41.2 A 7.993 7.993 0 0 0 27.023 39.174 A 11.265 11.265 0 0 0 25 39 Q 20.8 39 16.95 41.05 Q 13.1 43.1 10.1 46.5 Q 7.1 49.9 5.4 54 A 22.382 22.382 0 0 0 3.939 59.086 A 19.299 19.299 0 0 0 3.7 62.1 A 13.544 13.544 0 0 0 4.101 65.497 A 9.086 9.086 0 0 0 7.25 70.45 Q 10.8 73.3 16.6 73.3 Q 22.5 73.3 27.95 71.15 Q 33.4 69 37.7 65 A 40.023 40.023 0 0 0 41.529 60.794 Q 44.745 56.759 48 51 Z M 464.5 47.5 L 470.9 37.1 A 79.342 79.342 0 0 0 463.282 43.516 A 103.379 103.379 0 0 0 457.4 49.6 A 131.281 131.281 0 0 0 455.739 51.484 Q 454.897 52.457 453.974 53.555 A 229.439 229.439 0 0 0 453.35 54.3 A 176.764 176.764 0 0 0 451.142 57.007 Q 449.835 58.641 448.4 60.5 Q 444.8 65.2 444.1 65.2 Q 442.7 65.2 441.8 63.95 A 6.525 6.525 0 0 1 441.335 63.212 Q 441.125 62.816 441.016 62.449 A 2.637 2.637 0 0 1 440.9 61.7 Q 440.9 60.96 441.329 59.062 A 49.984 49.984 0 0 1 441.4 58.75 A 26.311 26.311 0 0 1 441.876 56.974 Q 442.155 56.068 442.479 55.286 A 15.603 15.603 0 0 1 442.6 55 Q 443.3 53.3 444.05 51.65 Q 444.8 50 445.5 48.4 L 439.5 54.7 L 438.3 55.9 A 7.429 7.429 0 0 1 437.882 56.29 Q 437.191 56.881 436.729 56.9 A 0.738 0.738 0 0 1 436.7 56.9 Q 436.2 56.9 436.2 56.2 A 0.749 0.749 0 0 1 436.214 56.064 Q 436.239 55.932 436.307 55.755 A 3.256 3.256 0 0 1 436.35 55.65 A 1.536 1.536 0 0 1 436.476 55.42 Q 436.625 55.191 436.892 54.911 A 6.493 6.493 0 0 1 437 54.8 Q 438.5 53.3 440.1 51.6 Q 441.7 49.9 443.4 47.7 A 182.751 182.751 0 0 0 443.906 47.078 Q 444.748 46.041 446.092 44.36 A 1292.286 1292.286 0 0 0 446.1 44.35 Q 447.9 42.1 450.05 39.5 Q 452.2 36.9 454.1 34.7 Q 454.512 34.124 454.991 33.853 A 1.936 1.936 0 0 1 455.2 33.75 A 8.589 8.589 0 0 1 455.444 33.653 Q 455.844 33.5 456 33.5 A 5.092 5.092 0 0 1 456.986 33.587 Q 458.7 33.927 458.7 35.6 A 2.554 2.554 0 0 1 458.524 36.519 A 3.136 3.136 0 0 1 458.4 36.8 Q 449.4 49.2 447.6 55.7 Q 457.161 46.139 463.631 40.485 A 134.781 134.781 0 0 1 466.25 38.25 A 68.093 68.093 0 0 1 469.093 36.007 Q 473.945 32.4 476.3 32.4 A 8.226 8.226 0 0 1 477.206 32.447 Q 478.143 32.551 478.73 32.889 A 2.412 2.412 0 0 1 478.75 32.9 A 1.589 1.589 0 0 1 479.448 33.777 Q 479.6 34.208 479.6 34.8 Q 479.6 35.126 479.558 35.366 A 1.641 1.641 0 0 1 479.5 35.6 Q 479.245 36.196 476.458 39.829 A 326.237 326.237 0 0 1 475.4 41.2 A 209.626 209.626 0 0 0 473.301 43.795 Q 472.318 45.032 471.464 46.152 A 125.271 125.271 0 0 0 471.35 46.3 Q 469.6 48.6 468.5 50.3 Q 466.858 52.854 465.965 55.117 A 19.434 19.434 0 0 0 465.8 55.55 A 19.015 19.015 0 0 0 465.297 57.112 Q 465.099 57.842 464.999 58.489 A 8.02 8.02 0 0 0 464.9 59.7 Q 464.9 60.4 465.1 61.4 Q 465.276 62.278 466.069 62.385 A 1.733 1.733 0 0 0 466.3 62.4 A 4.211 4.211 0 0 0 467.659 62.134 Q 469.65 61.443 472.81 58.954 A 50.87 50.87 0 0 0 473.5 58.4 Q 475.8 56.4 477.8 54.35 A 139.743 139.743 0 0 0 481.147 50.801 A 127.174 127.174 0 0 0 481.6 50.3 A 6.106 6.106 0 0 0 481.827 50.058 Q 482.204 49.637 482.839 48.829 A 60.175 60.175 0 0 0 482.9 48.75 A 21.143 21.143 0 0 1 483.189 48.389 Q 483.721 47.739 483.927 47.625 A 0.161 0.161 0 0 1 484 47.6 Q 484.4 47.6 484.4 48.4 Q 484.4 48.771 484.013 49.615 A 12.007 12.007 0 0 1 483.95 49.75 Q 483.632 50.423 483.288 50.87 A 3.378 3.378 0 0 1 483 51.2 Q 482.158 52.196 480.7 53.777 A 199.327 199.327 0 0 1 479.75 54.8 A 75.413 75.413 0 0 1 476.867 57.714 A 91.196 91.196 0 0 1 474.95 59.5 Q 472.3 61.9 469.8 63.6 A 13.765 13.765 0 0 1 468.369 64.46 Q 466.736 65.3 465.4 65.3 Q 462.7 65.3 461.6 63.75 Q 460.5 62.2 460.5 59.9 A 19.447 19.447 0 0 1 461.469 53.997 Q 462.219 51.638 463.549 49.163 A 37.027 37.027 0 0 1 464.5 47.5 Z M 142.1 57.2 A 23.151 23.151 0 0 0 142.104 57.643 Q 142.249 65.2 147.4 65.2 A 12.695 12.695 0 0 0 151.655 64.451 A 16.567 16.567 0 0 0 155.15 62.7 A 28.467 28.467 0 0 0 157.995 60.585 Q 160.225 58.705 162.249 56.263 A 38.908 38.908 0 0 0 162.3 56.2 A 39.277 39.277 0 0 0 163.297 54.94 A 34.325 34.325 0 0 0 167.5 47.8 Q 168.93 51.232 170.791 53.028 A 6.474 6.474 0 0 0 175.4 55 Q 177.817 55 180.083 53.13 A 14.121 14.121 0 0 0 181.9 51.3 A 8.278 8.278 0 0 0 182.233 50.809 Q 182.528 50.335 182.637 49.977 A 1.31 1.31 0 0 0 182.7 49.6 A 1.615 1.615 0 0 0 182.657 49.39 Q 182.518 48.9 182.1 48.9 A 1.131 1.131 0 0 0 181.611 49.017 Q 181.422 49.107 181.233 49.266 A 2.931 2.931 0 0 0 180.9 49.6 Q 178 52.8 175.8 52.8 A 3.762 3.762 0 0 1 173.071 51.632 A 6.348 6.348 0 0 1 172.15 50.45 A 15.565 15.565 0 0 1 171.178 48.622 A 11.942 11.942 0 0 1 170.3 45.8 A 39.279 39.279 0 0 1 170.32 45.718 Q 170.718 44.04 171.45 41.6 Q 172.2 39.1 172.2 36.6 A 8.173 8.173 0 0 0 172.2 36.565 Q 172.198 36.022 172.123 35.541 A 4.959 4.959 0 0 0 171.85 34.5 Q 171.616 33.899 171.093 33.655 A 1.822 1.822 0 0 0 170.5 33.5 A 6.808 6.808 0 0 0 170.198 33.46 Q 166.238 33.019 165.547 37.897 A 16.498 16.498 0 0 0 165.4 40.2 Q 165.4 43.3 166.1 45.4 A 13.633 13.633 0 0 1 165.719 46.574 Q 165.387 47.464 164.9 48.445 A 29.747 29.747 0 0 1 163.8 50.45 A 33.372 33.372 0 0 1 162.906 51.866 A 37.754 37.754 0 0 1 159.7 56 Q 157.3 58.7 154.7 60.5 A 13.845 13.845 0 0 1 153.858 61.041 Q 152.94 61.583 152.061 61.891 A 6.804 6.804 0 0 1 149.8 62.3 A 2.08 2.08 0 0 1 148.244 61.633 A 3.264 3.264 0 0 1 147.75 60.95 A 6.559 6.559 0 0 1 147.293 59.945 A 4.929 4.929 0 0 1 147 58.3 A 6.748 6.748 0 0 1 147.053 57.483 Q 147.483 53.96 151.456 47.817 A 88.971 88.971 0 0 1 154.3 43.7 Q 156.9 40.2 160.3 36.2 Q 163.7 32.2 167.9 27.6 Q 175.109 19.799 175.199 19.799 A 0.001 0.001 0 0 1 175.2 19.8 A 2.15 2.15 0 0 0 174.726 18.419 A 2.836 2.836 0 0 0 174.1 17.85 A 4.91 4.91 0 0 0 173.702 17.605 A 3.894 3.894 0 0 0 171.8 17.1 Q 166.763 17.1 157.962 28.389 A 133.685 133.685 0 0 0 153.7 34.2 A 198.384 198.384 0 0 0 150.901 38.335 Q 144.468 48.113 142.737 53.676 A 12.166 12.166 0 0 0 142.1 57.2 Z M 123 54.4 L 116.8 60.4 A 35.11 35.11 0 0 1 115.104 61.994 Q 113.297 63.575 111.75 64.4 A 15.77 15.77 0 0 1 110.552 64.98 Q 109.106 65.6 108.1 65.6 A 7.329 7.329 0 0 1 105.175 64.969 A 10.353 10.353 0 0 1 103.3 63.9 A 8.147 8.147 0 0 1 101.951 62.72 Q 101.107 61.784 100.774 60.702 A 4.858 4.858 0 0 1 100.6 59.9 A 10.374 10.374 0 0 1 100.515 58.563 Q 100.515 52.36 107.642 44.39 A 63.849 63.849 0 0 1 110.3 41.6 A 59.427 59.427 0 0 1 115.469 36.963 Q 121.545 32.168 126.857 31.229 A 14.589 14.589 0 0 1 129.4 31 Q 131.7 31 133 32.1 Q 133.7 32.8 134.05 34 A 12.568 12.568 0 0 0 134.166 34.377 Q 134.388 35.056 134.539 35.175 A 0.101 0.101 0 0 0 134.6 35.2 Q 135 35.2 135.3 35.05 A 1.397 1.397 0 0 1 135.709 34.922 A 1.859 1.859 0 0 1 136 34.9 A 2.863 2.863 0 0 1 138.042 35.743 A 3.757 3.757 0 0 1 138.1 35.8 A 6.084 6.084 0 0 1 138.522 36.264 Q 138.928 36.765 139.055 37.195 A 1.451 1.451 0 0 1 139.1 37.4 Q 139.2 37.6 132.7 47.3 Q 126.2 56.8 126.8 60.2 A 5.037 5.037 0 0 0 127.076 61.096 Q 127.276 61.568 127.559 61.881 A 1.853 1.853 0 0 0 129 62.5 A 6.077 6.077 0 0 0 131.798 61.617 Q 137.143 58.704 147.296 46.173 A 231.99 231.99 0 0 0 148 45.3 Q 148.272 44.938 148.543 44.904 A 0.453 0.453 0 0 1 148.6 44.9 Q 149.1 44.9 149.1 45.6 A 1.436 1.436 0 0 1 149.1 45.622 Q 149.088 46.417 148.2 47.6 Q 135.5 64.7 128.7 64.7 A 4.802 4.802 0 0 1 127.003 64.401 A 4.406 4.406 0 0 1 127 64.4 A 7.425 7.425 0 0 1 124.586 62.94 Q 123.066 61.525 122.709 59.264 A 9.402 9.402 0 0 1 122.6 57.8 Q 122.6 56.1 123 54.4 Z M 501.8 54.4 L 495.6 60.4 A 35.11 35.11 0 0 1 493.904 61.994 Q 492.097 63.575 490.55 64.4 A 15.77 15.77 0 0 1 489.352 64.98 Q 487.906 65.6 486.9 65.6 A 7.329 7.329 0 0 1 483.975 64.969 A 10.353 10.353 0 0 1 482.1 63.9 A 8.147 8.147 0 0 1 480.751 62.72 Q 479.907 61.784 479.574 60.702 A 4.858 4.858 0 0 1 479.4 59.9 A 10.374 10.374 0 0 1 479.315 58.563 Q 479.315 52.36 486.442 44.39 A 63.849 63.849 0 0 1 489.1 41.6 A 59.427 59.427 0 0 1 494.269 36.963 Q 500.345 32.168 505.657 31.229 A 14.589 14.589 0 0 1 508.2 31 Q 510.5 31 511.8 32.1 Q 512.5 32.8 512.85 34 A 12.568 12.568 0 0 0 512.966 34.377 Q 513.188 35.056 513.339 35.175 A 0.101 0.101 0 0 0 513.4 35.2 Q 513.8 35.2 514.1 35.05 A 1.397 1.397 0 0 1 514.509 34.922 A 1.859 1.859 0 0 1 514.8 34.9 A 2.863 2.863 0 0 1 516.842 35.743 A 3.757 3.757 0 0 1 516.9 35.8 A 6.084 6.084 0 0 1 517.322 36.264 Q 517.728 36.765 517.855 37.195 A 1.451 1.451 0 0 1 517.9 37.4 Q 518 37.6 511.5 47.3 Q 505 56.8 505.6 60.2 A 5.037 5.037 0 0 0 505.876 61.096 Q 506.076 61.568 506.359 61.881 A 1.853 1.853 0 0 0 507.8 62.5 A 6.077 6.077 0 0 0 510.598 61.617 Q 515.943 58.704 526.096 46.173 A 231.99 231.99 0 0 0 526.8 45.3 Q 527.072 44.938 527.343 44.904 A 0.453 0.453 0 0 1 527.4 44.9 Q 527.9 44.9 527.9 45.6 A 1.436 1.436 0 0 1 527.9 45.622 Q 527.888 46.417 527 47.6 Q 514.3 64.7 507.5 64.7 A 4.802 4.802 0 0 1 505.803 64.401 A 4.406 4.406 0 0 1 505.8 64.4 A 7.425 7.425 0 0 1 503.386 62.94 Q 501.866 61.525 501.509 59.264 A 9.402 9.402 0 0 1 501.4 57.8 Q 501.4 56.1 501.8 54.4 Z M 209.6 17.7 L 202.6 27.1 Q 198.5 32.6 195.2 37.25 Q 192.364 41.246 190.193 44.541 A 173.629 173.629 0 0 0 189.5 45.6 A 902.403 902.403 0 0 0 188.309 47.491 Q 187.686 48.484 186.998 49.584 A 1478.454 1478.454 0 0 0 186.8 49.9 Q 185.3 52.3 184.15 54.85 A 12.822 12.822 0 0 0 183.091 58.542 A 11.741 11.741 0 0 0 183 60 Q 183 61.2 183.7 62.15 Q 184.242 62.886 185.444 63.052 A 5.539 5.539 0 0 0 186.2 63.1 A 8.143 8.143 0 0 0 188.396 62.763 Q 190.44 62.187 193.055 60.626 A 38.501 38.501 0 0 0 194.6 59.65 A 40.697 40.697 0 0 0 199.614 55.686 Q 202.271 53.246 204.9 50.1 Q 205.4 49.5 206 49 Q 206.478 48.602 206.829 48.521 A 0.761 0.761 0 0 1 207 48.5 A 0.589 0.589 0 0 1 207.216 48.537 Q 207.473 48.637 207.498 49.017 A 1.292 1.292 0 0 1 207.5 49.1 Q 207.5 49.4 206.85 50.25 Q 206.353 50.901 206.001 51.347 A 43.865 43.865 0 0 1 205.8 51.6 L 203.4 54.3 Q 201.4 56.5 198.65 59.1 A 32.872 32.872 0 0 1 193.632 63.023 A 30.066 30.066 0 0 1 192.85 63.5 Q 189.8 65.3 186.7 65.3 Q 183.8 65.3 181.3 63.85 A 4.807 4.807 0 0 1 178.911 60.348 A 7.756 7.756 0 0 1 178.8 59 A 16.645 16.645 0 0 1 179.271 55.222 Q 179.688 53.437 180.475 51.454 A 40.999 40.999 0 0 1 182.15 47.8 Q 185.5 41.3 189.8 34.3 A 184.067 184.067 0 0 1 193.928 27.873 Q 202.414 15.3 206.4 15.3 Q 207.4 15.3 208.45 16.05 A 3.903 3.903 0 0 1 208.99 16.509 Q 209.26 16.788 209.412 17.086 A 1.767 1.767 0 0 1 209.6 17.7 Z M 423.5 17.7 L 416.5 27.1 Q 412.4 32.6 409.1 37.25 Q 406.264 41.246 404.093 44.541 A 173.629 173.629 0 0 0 403.4 45.6 A 902.403 902.403 0 0 0 402.209 47.491 Q 401.586 48.484 400.898 49.584 A 1478.454 1478.454 0 0 0 400.7 49.9 Q 399.2 52.3 398.05 54.85 A 12.822 12.822 0 0 0 396.991 58.542 A 11.741 11.741 0 0 0 396.9 60 Q 396.9 61.2 397.6 62.15 Q 398.142 62.886 399.344 63.052 A 5.539 5.539 0 0 0 400.1 63.1 A 8.143 8.143 0 0 0 402.296 62.763 Q 404.34 62.187 406.955 60.626 A 38.501 38.501 0 0 0 408.5 59.65 A 40.697 40.697 0 0 0 413.514 55.686 Q 416.171 53.246 418.8 50.1 Q 419.3 49.5 419.9 49 Q 420.378 48.602 420.729 48.521 A 0.761 0.761 0 0 1 420.9 48.5 A 0.589 0.589 0 0 1 421.116 48.537 Q 421.373 48.637 421.398 49.017 A 1.292 1.292 0 0 1 421.4 49.1 Q 421.4 49.4 420.75 50.25 Q 420.253 50.901 419.901 51.347 A 43.865 43.865 0 0 1 419.7 51.6 L 417.3 54.3 Q 415.3 56.5 412.55 59.1 A 32.872 32.872 0 0 1 407.532 63.023 A 30.066 30.066 0 0 1 406.75 63.5 Q 403.7 65.3 400.6 65.3 Q 397.7 65.3 395.2 63.85 A 4.807 4.807 0 0 1 392.811 60.348 A 7.756 7.756 0 0 1 392.7 59 A 16.645 16.645 0 0 1 393.171 55.222 Q 393.588 53.437 394.375 51.454 A 40.999 40.999 0 0 1 396.05 47.8 Q 399.4 41.3 403.7 34.3 A 184.067 184.067 0 0 1 407.828 27.873 Q 416.314 15.3 420.3 15.3 Q 421.3 15.3 422.35 16.05 A 3.903 3.903 0 0 1 422.89 16.509 Q 423.16 16.788 423.312 17.086 A 1.767 1.767 0 0 1 423.5 17.7 Z M 78.1 4.9 L 74.9 14.9 Q 73.2 19.2 70.1 24.9 A 180.731 180.731 0 0 1 67.12 30.156 Q 65.554 32.819 63.738 35.731 A 310.773 310.773 0 0 1 62.5 37.7 L 60.3 41.1 Q 61 41.5 61.85 41.75 A 19.876 19.876 0 0 0 62.957 42.04 A 24.524 24.524 0 0 0 63.7 42.2 A 30.613 30.613 0 0 0 66.835 42.697 A 27.524 27.524 0 0 0 67.4 42.75 Q 69.2 42.9 71 42.9 Q 74.7 42.9 78.35 42.15 A 74.973 74.973 0 0 0 82.63 41.132 A 96.022 96.022 0 0 0 86.2 40.1 A 62.986 62.986 0 0 0 92.556 37.578 A 71.442 71.442 0 0 0 94.7 36.55 A 49.549 49.549 0 0 0 102.119 32.013 A 45.713 45.713 0 0 0 102.6 31.65 A 30.302 30.302 0 0 0 106.03 28.615 A 23.621 23.621 0 0 0 108.4 25.75 A 13.352 13.352 0 0 0 109.865 23.084 A 9.826 9.826 0 0 0 110.6 19.4 A 7.841 7.841 0 0 0 108.385 13.914 A 10.936 10.936 0 0 0 107.6 13.15 A 19.133 19.133 0 0 0 104.248 10.806 Q 102.606 9.889 100.63 9.138 A 33.951 33.951 0 0 0 99.7 8.8 Q 94.8 7.1 89.1 6.15 Q 83.4 5.2 78.1 4.9 Z M 419.031 65.892 A 5.474 5.474 0 0 0 420.9 66.2 Q 424.9 66.2 428.3 64.25 Q 431.7 62.3 434.6 59.5 Q 437.5 56.7 439.9 54.3 A 54.815 54.815 0 0 0 441.081 53.085 Q 441.628 52.502 442.091 51.969 A 24.904 24.904 0 0 0 443.05 50.8 Q 443.949 49.628 444.145 49.067 A 0.834 0.834 0 0 0 444.2 48.8 Q 444.2 48.387 444.01 48.258 A 0.366 0.366 0 0 0 443.8 48.2 Q 443.6 48.2 442.85 48.7 Q 442.311 49.06 441.643 49.832 A 15.066 15.066 0 0 0 441.1 50.5 Q 440.1 51.75 438.729 53.157 A 58.122 58.122 0 0 1 436.95 54.9 Q 434.4 57.3 431.6 59.4 A 47.7 47.7 0 0 1 429.03 61.204 A 35.693 35.693 0 0 1 426.25 62.85 Q 424.497 63.778 423.193 64.068 A 5.06 5.06 0 0 1 422.1 64.2 Q 419.6 64.2 419.6 61 A 6.017 6.017 0 0 1 419.747 59.744 Q 420.452 56.459 424.551 50.641 A 96.707 96.707 0 0 1 427.1 47.2 L 434.7 37.4 A 1.226 1.226 0 0 0 434.684 37.202 Q 434.591 36.631 433.954 36.122 A 4.459 4.459 0 0 0 433.4 35.75 A 9.717 9.717 0 0 0 433.292 35.689 Q 432.514 35.253 431.882 35.093 A 2.787 2.787 0 0 0 431.2 35 Q 428.331 35.08 424.193 40.875 A 58.447 58.447 0 0 0 422 44.2 Q 420.6 46.4 419.15 49.2 A 46.099 46.099 0 0 0 418.624 50.249 A 40.733 40.733 0 0 0 416.75 54.75 Q 416.201 56.34 415.969 57.713 A 11.366 11.366 0 0 0 415.8 59.6 A 17.199 17.199 0 0 0 415.815 60.327 Q 415.894 62.199 416.395 63.417 A 4.017 4.017 0 0 0 417.25 64.75 A 4.797 4.797 0 0 0 419.031 65.892 Z M 209.3 65.3 L 207.7 65.3 A 4.162 4.162 0 0 1 204.389 63.779 A 6.002 6.002 0 0 1 203.8 62.95 Q 202.455 60.693 202.402 58.574 A 6.944 6.944 0 0 1 202.4 58.4 A 12 12 0 0 1 203.088 54.646 Q 204.847 49.363 211.1 41.6 Q 219.9 30.7 225.3 30.7 A 6.921 6.921 0 0 1 227.349 30.977 Q 229.602 31.676 230.191 34.135 A 8.452 8.452 0 0 1 230.4 36.1 A 9.622 9.622 0 0 1 230.342 37.139 A 11.735 11.735 0 0 1 230.25 37.8 Q 230.1 38.7 229.9 39.7 A 0.5 0.5 0 0 0 230.096 39.865 Q 230.363 40 230.9 40 A 9.617 9.617 0 0 0 233.066 39.733 Q 234.117 39.49 235.285 39.024 A 23.374 23.374 0 0 0 237.3 38.1 A 1.463 1.463 0 0 1 236.86 38.948 Q 235.537 40.411 230.253 42.645 A 85.666 85.666 0 0 1 229.4 43 Q 230.371 45.912 224.489 53.497 A 84.711 84.711 0 0 1 222.8 55.6 Q 217.24 62.428 212.818 64.45 A 8.478 8.478 0 0 1 209.3 65.3 Z M 370.8 65.3 L 369.2 65.3 A 4.162 4.162 0 0 1 365.889 63.779 A 6.002 6.002 0 0 1 365.3 62.95 Q 363.955 60.693 363.902 58.574 A 6.944 6.944 0 0 1 363.9 58.4 A 12 12 0 0 1 364.588 54.646 Q 366.347 49.363 372.6 41.6 Q 381.4 30.7 386.8 30.7 A 6.921 6.921 0 0 1 388.849 30.977 Q 391.102 31.676 391.691 34.135 A 8.452 8.452 0 0 1 391.9 36.1 A 9.622 9.622 0 0 1 391.842 37.139 A 11.735 11.735 0 0 1 391.75 37.8 Q 391.6 38.7 391.4 39.7 A 0.5 0.5 0 0 0 391.596 39.865 Q 391.863 40 392.4 40 A 9.617 9.617 0 0 0 394.566 39.733 Q 395.617 39.49 396.785 39.024 A 23.374 23.374 0 0 0 398.8 38.1 A 1.463 1.463 0 0 1 398.36 38.948 Q 397.037 40.411 391.753 42.645 A 85.666 85.666 0 0 1 390.9 43 Q 391.871 45.912 385.989 53.497 A 84.711 84.711 0 0 1 384.3 55.6 Q 378.74 62.428 374.318 64.45 A 8.478 8.478 0 0 1 370.8 65.3 Z M 123 50.7 L 133.6 36.1 A 2.628 2.628 0 0 0 131.715 34.763 A 3.911 3.911 0 0 0 131 34.7 A 10.889 10.889 0 0 0 127.114 35.519 Q 121.907 37.528 114.538 44.465 A 98.789 98.789 0 0 0 114.5 44.5 A 62.257 62.257 0 0 0 110.681 48.333 Q 104.699 54.931 104.699 59.769 A 7.369 7.369 0 0 0 104.8 61 A 4.851 4.851 0 0 0 105.099 61.965 Q 105.718 63.372 107.142 63.4 A 2.96 2.96 0 0 0 107.2 63.4 A 7.889 7.889 0 0 0 110.686 62.451 Q 115.243 60.173 121.607 52.433 A 105.469 105.469 0 0 0 123 50.7 Z M 501.8 50.7 L 512.4 36.1 A 2.628 2.628 0 0 0 510.515 34.763 A 3.911 3.911 0 0 0 509.8 34.7 A 10.889 10.889 0 0 0 505.914 35.519 Q 500.707 37.528 493.338 44.465 A 98.789 98.789 0 0 0 493.3 44.5 A 62.257 62.257 0 0 0 489.481 48.333 Q 483.499 54.931 483.499 59.769 A 7.369 7.369 0 0 0 483.6 61 A 4.851 4.851 0 0 0 483.899 61.965 Q 484.518 63.372 485.942 63.4 A 2.96 2.96 0 0 0 486 63.4 A 7.889 7.889 0 0 0 489.486 62.451 Q 494.043 60.173 500.407 52.433 A 105.469 105.469 0 0 0 501.8 50.7 Z M 209.5 62.3 A 6.551 6.551 0 0 0 212.245 61.613 Q 215.703 60.004 220.305 54.629 A 64.396 64.396 0 0 0 220.5 54.4 A 72.119 72.119 0 0 0 222.993 51.29 Q 226.449 46.702 226.924 44.085 A 4.401 4.401 0 0 0 227 43.3 A 5.116 5.116 0 0 1 226.094 42.625 Q 224.763 41.417 223 38.7 A 4.389 4.389 0 0 0 221.048 39.245 Q 217.95 40.814 213.2 46.9 A 57.847 57.847 0 0 0 210.673 50.344 Q 206.946 55.877 207.1 59.2 A 6.18 6.18 0 0 0 207.232 60.332 Q 207.667 62.3 209.5 62.3 Z M 371 62.3 A 6.551 6.551 0 0 0 373.745 61.613 Q 377.203 60.004 381.805 54.629 A 64.396 64.396 0 0 0 382 54.4 A 72.119 72.119 0 0 0 384.493 51.29 Q 387.949 46.702 388.424 44.085 A 4.401 4.401 0 0 0 388.5 43.3 A 5.116 5.116 0 0 1 387.594 42.625 Q 386.263 41.417 384.5 38.7 A 4.389 4.389 0 0 0 382.548 39.245 Q 379.45 40.814 374.7 46.9 A 57.847 57.847 0 0 0 372.173 50.344 Q 368.446 55.877 368.6 59.2 A 6.18 6.18 0 0 0 368.732 60.332 Q 369.167 62.3 371 62.3 Z M 439.4 30.7 Q 437.7 30.7 436.45 29.6 A 4.226 4.226 0 0 1 435.719 28.78 A 2.968 2.968 0 0 1 435.2 27.1 A 2.879 2.879 0 0 1 435.48 25.786 Q 436.088 24.584 438.018 24.354 A 8.345 8.345 0 0 1 439 24.3 A 4.459 4.459 0 0 1 440.772 24.681 A 6.175 6.175 0 0 1 441.8 25.25 A 3.89 3.89 0 0 1 442.538 25.888 A 2.515 2.515 0 0 1 443.2 27.6 A 2.223 2.223 0 0 1 442.73 28.954 Q 442.496 29.267 442.146 29.559 A 4.923 4.923 0 0 1 441.9 29.75 A 5.956 5.956 0 0 1 440.998 30.301 Q 440.46 30.563 439.94 30.653 A 3.158 3.158 0 0 1 439.4 30.7 Z" vector-effect="non-scaling-stroke"/></g></svg>